# xmcd
#
# Track frame offsets: 
#        150
#        13648
#        25627
#        37836
#        48164
#        62618
#        72257
#        90833
#        104304
#        114144
#
# Disc length: 1699 seconds
#
# Revision: 0
# Processed by: cddbd v1.5.2PL0 Copyright (c) Steve Scherf et al.
# Submitted via: ExactAudioCopy v0.95b4
#
DISCID=6506a10a
DTITLE=Johnny Paycheck - Slide Off Of Your Satin Sheets
DYEAR=1977
DGENRE=Classic Country
TTITLE0=Slide Off of Your Satin Sheets
TTITLE1=If You Could Hold My Heart (For Awhile)
TTITLE2=You're Gonna Be the Cowboy
TTITLE3=Hank (You Tried to Tell Me)
TTITLE4=I'm the Only Hell (Mama Ever Raised)
TTITLE5=You're Still On My Mind
TTITLE6=I Did the Right Thing
TTITLE7=Woman (You Better Love Me)
TTITLE8=I've Got Them Lookin' in the Mirror, Wonderin' Where My Woman 
TTITLE8=Went Blues
TTITLE9=(To Be So Bad) She's Still Lookin' Good
EXTD=
EXTT0=
EXTT1=
EXTT2=
EXTT3=
EXTT4=
EXTT5=
EXTT6=
EXTT7=
EXTT8=
EXTT9=
PLAYORDER=
